<?xml version="1.0" standalone="no"?>
<!DOCTYPE svg PUBLIC "-//W3C//DTD SVG 20010904//EN"
 "http://www.w3.org/TR/2001/REC-SVG-20010904/DTD/svg10.dtd">
<svg version="1.0" xmlns="http://www.w3.org/2000/svg"
 width="512.000000pt" height="512.000000pt" viewBox="0 0 512.000000 512.000000"
 preserveAspectRatio="xMidYMid meet">
<metadata>
Created by potrace 1.14, written by Peter Selinger 2001-2017
</metadata>
<g transform="translate(0.000000,512.000000) scale(0.100000,-0.100000)"
fill="#000000" stroke="none">
<path d="M2378 5115 c-1 -1 -39 -5 -82 -9 -44 -4 -82 -8 -85 -10 -3 -2 -31 -7
-61 -11 -188 -23 -481 -113 -683 -210 -672 -321 -1168 -908 -1371 -1620 -43
-151 -66 -278 -86 -465 -8 -81 -5 -463 5 -520 3 -19 13 -78 21 -130 84 -523
339 -1018 719 -1393 228 -225 488 -405 755 -521 47 -21 94 -41 105 -46 88 -39
362 -119 469 -135 21 -4 47 -8 58 -10 11 -3 46 -7 77 -11 31 -3 77 -10 103
-14 49 -7 473 -5 518 4 14 2 45 7 70 10 350 49 690 171 984 353 507 313 872
761 1072 1312 25 69 47 133 49 141 2 8 10 40 19 70 55 196 81 403 81 665 0
217 -11 331 -50 520 -180 875 -827 1607 -1675 1897 -87 30 -288 82 -350 92
-19 3 -46 8 -60 11 -14 3 -45 8 -70 11 -25 3 -56 8 -70 10 -27 6 -456 14 -462
9z"/>
</g>
</svg>
